<svg xmlns="http://www.w3.org/2000/svg" viewBox="0 0 64 64" role="img" aria-labelledby="title">
  <title id="title">Essenshea angel assistant</title>
  <g fill="none" stroke="#f8f4ea" stroke-linecap="round" stroke-linejoin="round">
    <ellipse cx="32" cy="10" rx="12" ry="4" stroke-width="2.5"/>
    <path d="M22 31c-8-7-15-3-15 5 0 7 7 13 17 15M42 31c8-7 15-3 15 5 0 7-7 13-17 15" stroke-width="3"/>
    <circle cx="32" cy="30" r="13" fill="#f8f4ea" stroke-width="2.5"/>
    <path d="M26 28h.1M38 28h.1M27 35c3 2.5 7 2.5 10 0" stroke="#536341" stroke-width="2.5"/>
    <path d="M23 22c2-5 7-8 13-7 4 .7 7 3 9 6" stroke-width="3"/>
  </g>
</svg>

